<svg width="202" height="40" viewBox="0 0 202 40" fill="none" xmlns="http://www.w3.org/2000/svg">
<path d="M5.98402 31H0.35902L10.6005 1.90909H17.1062L27.3619 31H21.7369L13.967 7.875H13.7397L5.98402 31ZM6.16868 19.5938H21.5096V23.8267H6.16868V19.5938ZM38.3988 31.3835C36.6848 31.3835 35.1507 30.9432 33.7965 30.0625C32.4424 29.1818 31.3723 27.9034 30.5863 26.2273C29.8003 24.5511 29.4073 22.5152 29.4073 20.1193C29.4073 17.6951 29.805 15.6496 30.6005 13.983C31.4054 12.3068 32.4897 11.0426 33.8533 10.1903C35.217 9.3286 36.7369 8.89773 38.413 8.89773C39.6914 8.89773 40.7425 9.11553 41.5664 9.55114C42.3903 9.97727 43.0437 10.4934 43.5266 11.0994C44.0096 11.696 44.3836 12.2595 44.6488 12.7898H44.8619V1.90909H50.0181V31H44.9613V27.5625H44.6488C44.3836 28.0928 44.0001 28.6562 43.4982 29.2528C42.9963 29.84 42.3335 30.3419 41.5096 30.7585C40.6857 31.1752 39.6488 31.3835 38.3988 31.3835ZM39.8335 27.1648C40.9225 27.1648 41.8505 26.8712 42.6175 26.2841C43.3846 25.6875 43.967 24.8589 44.3647 23.7983C44.7624 22.7377 44.9613 21.5019 44.9613 20.0909C44.9613 18.6799 44.7624 17.4536 44.3647 16.4119C43.9764 15.3703 43.3988 14.5606 42.6317 13.983C41.8742 13.4053 40.9414 13.1165 39.8335 13.1165C38.6876 13.1165 37.7312 13.4148 36.9641 14.0114C36.1971 14.608 35.6194 15.4318 35.2312 16.483C34.8429 17.5341 34.6488 18.7367 34.6488 20.0909C34.6488 21.4545 34.8429 22.6714 35.2312 23.7415C35.6289 24.8021 36.2113 25.6402 36.9783 26.2557C37.7549 26.8617 38.7066 27.1648 39.8335 27.1648ZM63.5941 31.3835C61.8801 31.3835 60.346 30.9432 58.9918 30.0625C57.6377 29.1818 56.5676 27.9034 55.7816 26.2273C54.9956 24.5511 54.6026 22.5152 54.6026 20.1193C54.6026 17.6951 55.0004 15.6496 55.7958 13.983C56.6007 12.3068 57.685 11.0426 59.0487 10.1903C60.4123 9.3286 61.9322 8.89773 63.6083 8.89773C64.8867 8.89773 65.9379 9.11553 66.7617 9.55114C67.5856 9.97727 68.239 10.4934 68.7219 11.0994C69.2049 11.696 69.579 12.2595 69.8441 12.7898H70.0572V1.90909H75.2134V31H70.1566V27.5625H69.8441C69.579 28.0928 69.1954 28.6562 68.6935 29.2528C68.1916 29.84 67.5288 30.3419 66.7049 30.7585C65.881 31.1752 64.8441 31.3835 63.5941 31.3835ZM65.0288 27.1648C66.1178 27.1648 67.0458 26.8712 67.8129 26.2841C68.5799 25.6875 69.1623 24.8589 69.56 23.7983C69.9577 22.7377 70.1566 21.5019 70.1566 20.0909C70.1566 18.6799 69.9577 17.4536 69.56 16.4119C69.1718 15.3703 68.5941 14.5606 67.8271 13.983C67.0695 13.4053 66.1367 13.1165 65.0288 13.1165C63.8829 13.1165 62.9265 13.4148 62.1594 14.0114C61.3924 14.608 60.8147 15.4318 60.4265 16.483C60.0382 17.5341 59.8441 18.7367 59.8441 20.0909C59.8441 21.4545 60.0382 22.6714 60.4265 23.7415C60.8242 24.8021 61.4066 25.6402 62.1737 26.2557C62.9502 26.8617 63.9019 27.1648 65.0288 27.1648ZM83.8888 39.1818C83.1881 39.1818 82.5394 39.125 81.9428 39.0114C81.3557 38.9072 80.887 38.7841 80.5366 38.642L81.7298 34.6364C82.4779 34.8542 83.1455 34.9583 83.7326 34.9489C84.3197 34.9394 84.8358 34.7547 85.2809 34.3949C85.7354 34.0445 86.119 33.4574 86.4315 32.6335L86.8718 31.4545L78.9599 9.18182H84.4144L89.4428 25.6591H89.6701L94.7127 9.18182H100.181L91.4457 33.642C91.0385 34.7973 90.4987 35.7869 89.8263 36.6108C89.154 37.4441 88.3301 38.0786 87.3548 38.5142C86.3888 38.9593 85.2335 39.1818 83.8888 39.1818ZM113.889 31V1.90909H124.798C127.033 1.90909 128.908 2.32576 130.423 3.15909C131.948 3.99242 133.098 5.13826 133.875 6.59659C134.661 8.04545 135.054 9.69318 135.054 11.5398C135.054 13.4053 134.661 15.0625 133.875 16.5114C133.089 17.9602 131.929 19.1013 130.395 19.9347C128.86 20.7585 126.971 21.1705 124.727 21.1705H117.497V16.8381H124.017C125.324 16.8381 126.394 16.6108 127.227 16.1562C128.06 15.7017 128.676 15.0767 129.074 14.2812C129.481 13.4858 129.684 12.572 129.684 11.5398C129.684 10.5076 129.481 9.59848 129.074 8.8125C128.676 8.02652 128.056 7.41572 127.213 6.98011C126.379 6.53504 125.305 6.3125 123.988 6.3125H119.159V31H113.889ZM139.404 31V9.18182H144.39V12.8182H144.617C145.015 11.5587 145.696 10.5881 146.662 9.90625C147.638 9.21496 148.75 8.86932 150 8.86932C150.284 8.86932 150.602 8.88352 150.952 8.91193C151.312 8.93087 151.61 8.96401 151.847 9.01136V13.7415C151.629 13.6657 151.283 13.5994 150.81 13.5426C150.346 13.4763 149.896 13.4432 149.461 13.4432C148.523 13.4432 147.68 13.6468 146.932 14.054C146.194 14.4517 145.611 15.0057 145.185 15.7159C144.759 16.4261 144.546 17.2453 144.546 18.1733V31H139.404ZM155.263 31V9.18182H160.405V31H155.263ZM157.848 6.08523C157.034 6.08523 156.333 5.81534 155.746 5.27557C155.159 4.72632 154.865 4.06818 154.865 3.30114C154.865 2.52462 155.159 1.86648 155.746 1.3267C156.333 0.777461 157.034 0.50284 157.848 0.50284C158.672 0.50284 159.373 0.777461 159.951 1.3267C160.538 1.86648 160.831 2.52462 160.831 3.30114C160.831 4.06818 160.538 4.72632 159.951 5.27557C159.373 5.81534 158.672 6.08523 157.848 6.08523ZM170.835 18.2159V31H165.693V9.18182H170.608V12.8892H170.863C171.365 11.6676 172.165 10.697 173.264 9.97727C174.372 9.25758 175.74 8.89773 177.369 8.89773C178.875 8.89773 180.186 9.2197 181.304 9.86364C182.431 10.5076 183.302 11.4403 183.917 12.6619C184.542 13.8835 184.85 15.3655 184.841 17.108V31H179.699V17.9034C179.699 16.4451 179.32 15.304 178.562 14.4801C177.814 13.6562 176.777 13.2443 175.451 13.2443C174.552 13.2443 173.752 13.4432 173.051 13.8409C172.359 14.2292 171.815 14.7926 171.417 15.5312C171.029 16.2699 170.835 17.1648 170.835 18.2159ZM200.963 9.18182V13.1591H188.42V9.18182H200.963ZM191.517 3.95455H196.659V24.4375C196.659 25.1288 196.763 25.6591 196.971 26.0284C197.189 26.3883 197.473 26.6345 197.824 26.767C198.174 26.8996 198.562 26.9659 198.988 26.9659C199.31 26.9659 199.604 26.9422 199.869 26.8949C200.144 26.8475 200.352 26.8049 200.494 26.767L201.36 30.7869C201.086 30.8816 200.693 30.9858 200.181 31.0994C199.68 31.2131 199.064 31.2794 198.335 31.2983C197.047 31.3362 195.887 31.142 194.855 30.7159C193.823 30.2803 193.003 29.608 192.397 28.6989C191.801 27.7898 191.507 26.6534 191.517 25.2898V3.95455Z" fill="#D6192E"/>
</svg>
